<svg xmlns="http://www.w3.org/2000/svg" width="300" height="300" viewBox="0 0 300 300">
<g fill="none" stroke="black" stroke-width="1">
<path d="M 191 220 L 193 220 L 194 221 L 194 223 L 194 220" />
<path d="M 201 194 L 201 195 L 200 196 L 200 223 L 198 225 L 196 225 L 198 225 L 199 224 L 200 224 L 200 196 L 202 194 L 204 194" />
<path d="M 159 174 L 158 175 L 158 176 L 158 175" />
<path d="M 83 173 L 84 173 L 85 174 L 85 176 L 85 173" />
<path d="M 237 167 L 236 168 L 236 170 L 235 171 L 236 170 L 237 171 L 236 170 L 236 169 L 238 167 L 240 167" />
<path d="M 182 165 L 181 166 L 182 166" />
<path d="M 61 162 L 63 162 L 64 163 L 64 165 L 64 162" />
<path d="M 122 160 L 122 161 L 121 162 L 102 162 L 101 163 L 101 166 L 100 167 L 71 167 L 73 167 L 75 169 L 75 170 L 75 168 L 76 167 L 101 167 L 101 163 L 102 162 L 127 162 L 127 160 L 127 161 L 126 162 L 123 162 L 122 161" />
<path d="M 244 157 L 243 158 L 242 158 L 242 160 L 242 159 L 244 157 L 245 157" />
<path d="M 129 157 L 150 157 L 153 160 L 152 159 L 152 158 L 151 158 L 150 157" />
<path d="M 54 154 L 54 155" />
<path d="M 59 149 L 59 151 L 58 152 L 56 152 L 59 152" />
<path d="M 193 148" />
<path d="M 53 148 L 54 149 L 54 150 L 52 152 L 49 152 L 49 153 L 48 154 L 48 156 L 48 154 L 50 152 L 53 152 L 54 151 L 54 149 L 55 148 L 54 149" />
<path d="M 114 146 L 113 147 L 111 147 L 111 151 L 110 152 L 106 152 L 106 157 L 116 157 L 116 156 L 117 155 L 117 153 L 118 152 L 121 152 L 122 153 L 122 156 L 121 157 L 118 157 L 121 157 L 122 156 L 123 157 L 125 157 L 126 158 L 127 157 L 127 147 L 126 147 L 125 146 L 119 146 L 118 147 L 116 147 L 115 146" />
<path d="M 69 144 L 69 145 L 68 146 L 66 146 L 69 146" />
<path d="M 64 143 L 64 145 L 63 146 L 61 146 L 60 147 L 58 147 L 57 146 L 55 146 L 57 146 L 58 147 L 60 147 L 61 146 L 64 146" />
<path d="M 197 142 L 199 142 L 200 143 L 200 144 L 200 142" />
<path d="M 189 139" />
<path d="M 179 137 L 183 137 L 184 138 L 184 139 L 185 140 L 185 141 L 186 142 L 184 144 L 182 142 L 183 141 L 182 142 L 181 142 L 179 140 L 179 139 L 179 140 L 180 141 L 180 142 L 182 142 L 185 145 L 185 147 L 186 146 L 193 146 L 186 146 L 184 144 L 186 142 L 195 142 L 186 142 L 185 141 L 185 140 L 184 139 L 184 137" />
<path d="M 174 137 L 174 139 L 171 142 L 164 142 L 164 143 L 163 144 L 163 150 L 163 144 L 165 142 L 171 142 L 172 141 L 173 141 L 173 140 L 174 139 L 174 138 L 175 137 L 177 137" />
<path d="M 247 132 L 247 161" />
<path d="M 236 128 L 236 140 L 234 142 L 231 142 L 231 145 L 230 146 L 228 146 L 227 147 L 226 147 L 226 150 L 224 152 L 218 152 L 215 149 L 215 147 L 214 147 L 213 146 L 211 146 L 210 145 L 210 142 L 207 142 L 205 140 L 205 137 L 187 137 L 204 137 L 205 138 L 205 141 L 206 141 L 207 142 L 209 142 L 210 143 L 210 145 L 209 146 L 208 146 L 209 146 L 210 145 L 211 146 L 213 146 L 215 148 L 215 149 L 216 150 L 216 153 L 215 154 L 215 157 L 214 158 L 213 157 L 215 159 L 215 161 L 214 162 L 213 162 L 215 162 L 215 154 L 216 153 L 216 152 L 217 151 L 218 152 L 225 152 L 226 151 L 226 148 L 228 146 L 231 146 L 231 143 L 232 142 L 234 142 L 235 141 L 236 141" />
<path d="M 101 128 L 101 130 L 100 131 L 98 131 L 100 131 L 101 130" />
<path d="M 231 123 L 231 125 L 232 126 L 234 126 L 233 126 L 231 124" />
<path d="M 111 123 L 111 124 L 109 126 L 108 126 L 110 126 L 111 125" />
<path d="M 226 118 L 226 120 L 227 121 L 229 121 L 228 121 L 226 119" />
<path d="M 132 112 L 132 114 L 130 116 L 129 116 L 130 116 L 131 115 L 132 115" />
<path d="M 144 100 L 146 100 L 148 102 L 148 103 L 146 105 L 140 105 L 146 105 L 147 104 L 148 104 L 148 102 L 147 101 L 147 100" />
<path d="M 169 53 L 169 54 L 168 55 L 168 57 L 167 58 L 165 58 L 164 57 L 164 56 L 162 56 L 162 58 L 162 57 L 163 56 L 165 58 L 164 59 L 164 60 L 163 61 L 163 62 L 162 63 L 160 63 L 159 64 L 158 64 L 158 66 L 156 68 L 155 68 L 154 69 L 153 69 L 153 72 L 151 74 L 148 74 L 148 77 L 146 79 L 144 79 L 143 80 L 143 87 L 141 89 L 138 89 L 138 98 L 137 99 L 136 99 L 135 100 L 132 100 L 132 103 L 130 105 L 127 105 L 127 108 L 125 110 L 117 110 L 117 114 L 115 116 L 106 116 L 106 119 L 104 121 L 96 121 L 96 123 L 95 124 L 95 125 L 94 126 L 85 126 L 85 129 L 83 131 L 75 131 L 75 134 L 74 135 L 74 136 L 73 137 L 65 137 L 65 138 L 64 139 L 64 140 L 62 142 L 54 142 L 54 144 L 52 146 L 46 146 L 45 147 L 44 147 L 44 148 L 43 149 L 44 150 L 44 154 L 43 155 L 44 156 L 44 157 L 46 157 L 48 159 L 48 160 L 49 161 L 49 162 L 52 162 L 54 164 L 54 167 L 58 167 L 59 168 L 59 171 L 60 172 L 60 173 L 67 173 L 69 175 L 69 177 L 70 178 L 79 178 L 80 177 L 80 173 L 71 173 L 69 171 L 69 167 L 61 167 L 68 167 L 69 168 L 69 171 L 71 173 L 79 173 L 80 174 L 80 176 L 78 178 L 70 178 L 69 177 L 69 174 L 68 173 L 61 173 L 59 171 L 59 168 L 58 167 L 59 166 L 59 163 L 58 162 L 56 162 L 54 160 L 54 159 L 53 158 L 53 157 L 51 157 L 50 156 L 51 157 L 50 158 L 51 157 L 52 157 L 54 159 L 54 160 L 52 162 L 50 162 L 48 160 L 48 158 L 47 158 L 46 157 L 45 157 L 43 155 L 44 154 L 44 150 L 43 149 L 46 146 L 53 146 L 53 145 L 54 144 L 54 143 L 55 142 L 62 142 L 63 141 L 64 141 L 64 139 L 66 137 L 73 137 L 75 139 L 75 140 L 73 142 L 66 142 L 73 142 L 74 141 L 75 141 L 75 139 L 77 137 L 83 137 L 84 136 L 85 136 L 85 132 L 85 135 L 83 137 L 77 137 L 76 136 L 77 137 L 75 139 L 73 137 L 74 136 L 74 135 L 75 134 L 75 132 L 76 131 L 83 131 L 84 130 L 85 130 L 85 127 L 86 126 L 94 126 L 95 127 L 95 130 L 94 131 L 87 131 L 95 131 L 96 130 L 95 129 L 95 127 L 94 126 L 95 125 L 95 124 L 96 123 L 96 122 L 97 121 L 104 121 L 106 123 L 106 124 L 104 126 L 98 126 L 97 125 L 98 126 L 97 127 L 98 126 L 104 126 L 105 125 L 106 125 L 106 123 L 108 121 L 115 121 L 116 120 L 117 120 L 118 121 L 121 121 L 122 120 L 122 118 L 122 119 L 120 121 L 118 121 L 117 120 L 117 118 L 119 116 L 125 116 L 126 115 L 127 115 L 127 112 L 129 110 L 132 110 L 132 107 L 134 105 L 137 105 L 138 104 L 138 103 L 137 102 L 137 101 L 136 100 L 138 98 L 140 100 L 139 101 L 140 100 L 142 100 L 142 99 L 143 98 L 143 91 L 145 89 L 147 89 L 147 88 L 148 87 L 148 81 L 146 79 L 148 77 L 149 78 L 149 79 L 152 79 L 152 78 L 153 77 L 153 76 L 155 74 L 158 74 L 158 69 L 157 68 L 158 67 L 158 65 L 160 63 L 162 63 L 163 64 L 163 67 L 162 68 L 160 68 L 163 68 L 163 61 L 164 60 L 164 59 L 165 58 L 167 58 L 168 59 L 168 62 L 167 63 L 166 63 L 165 62 L 165 63 L 168 63 L 168 55 L 170 53 L 178 53 L 179 54 L 179 93 L 177 95 L 176 95 L 174 93 L 174 59 L 173 59 L 172 58 L 170 58 L 172 58 L 174 60 L 174 94 L 175 94 L 176 95 L 177 95 L 179 97 L 179 99 L 180 99 L 181 100 L 203 100 L 205 102 L 205 104 L 206 105 L 213 105 L 214 106 L 213 105 L 215 103 L 216 104 L 217 104 L 218 105 L 225 105 L 226 106 L 226 108 L 224 110 L 217 110 L 215 108 L 216 107 L 216 106 L 216 107 L 215 108 L 215 109 L 216 109 L 217 110 L 224 110 L 225 109 L 227 109 L 228 110 L 229 110 L 231 112 L 231 114 L 229 116 L 227 116 L 226 115 L 226 112 L 226 116 L 229 116 L 231 114 L 233 116 L 232 117 L 231 117 L 231 121 L 234 121 L 236 123 L 236 125 L 237 126 L 240 126 L 242 124 L 244 126 L 243 127 L 242 127 L 242 131 L 245 131 L 246 130 L 248 130 L 249 131 L 250 131 L 252 133 L 252 161 L 251 162 L 249 162 L 248 163 L 247 163 L 247 166 L 246 167 L 244 167 L 242 165 L 242 163 L 243 162 L 245 162 L 242 162 L 242 166 L 243 166 L 244 167 L 243 168 L 242 168 L 242 171 L 240 173 L 237 173 L 237 174 L 236 175 L 235 174 L 235 173 L 233 173 L 231 171 L 231 169 L 233 167 L 234 167 L 232 167 L 231 168 L 231 171 L 232 172 L 231 173 L 231 187 L 230 188 L 228 188 L 231 188 L 231 174 L 232 173 L 234 173 L 236 175 L 236 193 L 235 194 L 228 194 L 226 192 L 226 190 L 224 188 L 225 187 L 226 187 L 226 184 L 225 183 L 226 182 L 226 180 L 228 178 L 229 178 L 227 178 L 226 179 L 226 182 L 225 183 L 217 183 L 215 185 L 215 186 L 213 188 L 206 188 L 205 189 L 204 188 L 202 188 L 204 188 L 205 189 L 205 191 L 204 192 L 205 191 L 206 192 L 205 191 L 205 190 L 207 188 L 213 188 L 215 190 L 215 193 L 214 194 L 206 194 L 206 195 L 205 196 L 205 229 L 204 230 L 196 230 L 195 229 L 195 227 L 194 226 L 194 225 L 191 225 L 189 223 L 189 209 L 186 209 L 188 209 L 189 210 L 189 219 L 188 220 L 186 220 L 184 218 L 184 204 L 175 204 L 175 205 L 174 206 L 172 204 L 173 203 L 173 199 L 171 199 L 170 200 L 171 199 L 172 199 L 173 200 L 173 203 L 172 204 L 170 204 L 168 202 L 168 200 L 167 199 L 168 198 L 168 196 L 170 194 L 194 194 L 194 192 L 195 191 L 194 190 L 195 191 L 194 192 L 194 193 L 193 194 L 169 194 L 169 195 L 168 196 L 168 198 L 167 199 L 165 199 L 164 198 L 164 196 L 163 195 L 163 191 L 164 190 L 164 189 L 165 188 L 194 188 L 194 187 L 195 186 L 195 184 L 196 183 L 199 183 L 200 184 L 200 187 L 199 188 L 196 188 L 200 188 L 200 184 L 199 183 L 200 182 L 200 180 L 202 178 L 204 178 L 205 179 L 205 182 L 204 183 L 202 183 L 205 183 L 205 180 L 207 178 L 210 178 L 210 174 L 211 173 L 214 173 L 215 172 L 215 167 L 212 167 L 214 167 L 215 168 L 215 172 L 214 173 L 210 173 L 210 177 L 209 178 L 207 178 L 206 179 L 205 179 L 204 178 L 202 178 L 200 180 L 198 178 L 199 177 L 200 177 L 200 175 L 202 173 L 204 173 L 205 172 L 205 169 L 205 171 L 203 173 L 202 173 L 200 171 L 200 169 L 202 167 L 204 167 L 205 166 L 206 167 L 210 167 L 210 152 L 207 152 L 205 150 L 205 147 L 204 147 L 203 146 L 196 146 L 195 145 L 195 144 L 195 146 L 203 146 L 205 148 L 205 150 L 203 152 L 196 152 L 195 151 L 195 149 L 196 148 L 195 148 L 195 152 L 203 152 L 205 154 L 205 156 L 204 157 L 166 157 L 165 156 L 166 157 L 165 158 L 166 157 L 205 157 L 205 154 L 207 152 L 209 152 L 210 153 L 210 166 L 209 167 L 206 167 L 205 166 L 205 163 L 204 162 L 180 162 L 180 163 L 179 164 L 179 166 L 178 167 L 176 167 L 173 164 L 173 163 L 172 162 L 165 162 L 164 161 L 164 160 L 163 159 L 163 158 L 162 157 L 163 156 L 163 152 L 159 152 L 159 153 L 158 154 L 158 155 L 159 156 L 159 157 L 162 157 L 163 158 L 163 159 L 164 160 L 164 162 L 172 162 L 173 163 L 173 164 L 174 165 L 172 167 L 169 167 L 169 168 L 168 169 L 168 172 L 167 173 L 164 173 L 164 175 L 163 176 L 163 177 L 162 178 L 159 178 L 159 179 L 158 180 L 158 181 L 156 183 L 154 183 L 153 184 L 153 186 L 151 188 L 144 188 L 143 187 L 143 185 L 145 183 L 147 183 L 147 182 L 148 181 L 148 180 L 146 178 L 145 178 L 144 179 L 143 179 L 143 182 L 144 183 L 144 184 L 143 185 L 141 183 L 139 183 L 138 182 L 138 179 L 139 178 L 140 178 L 141 179 L 141 178 L 139 178 L 138 179 L 137 179 L 138 180 L 138 182 L 139 183 L 138 184 L 138 186 L 136 188 L 134 188 L 132 186 L 132 184 L 133 183 L 135 183 L 136 184 L 135 183 L 133 183 L 132 182 L 132 179 L 131 178 L 132 177 L 132 174 L 131 174 L 130 173 L 132 171 L 134 173 L 141 173 L 143 175 L 143 177 L 143 175 L 145 173 L 146 173 L 145 173 L 143 171 L 143 168 L 144 167 L 151 167 L 153 169 L 153 171 L 154 171 L 153 170 L 153 168 L 152 168 L 151 167 L 134 167 L 132 165 L 132 164 L 134 162 L 156 162 L 158 164 L 158 172 L 157 173 L 154 173 L 153 174 L 153 177 L 152 178 L 150 178 L 148 176 L 148 174 L 149 173 L 150 173 L 151 174 L 151 173 L 148 173 L 148 177 L 149 178 L 153 178 L 153 175 L 155 173 L 157 173 L 158 172 L 158 163 L 157 162 L 134 162 L 133 163 L 132 163 L 132 165 L 130 167 L 112 167 L 111 168 L 111 171 L 109 173 L 106 173 L 106 177 L 105 178 L 82 178 L 80 180 L 80 181 L 81 182 L 81 183 L 125 183 L 127 185 L 127 188 L 130 188 L 132 190 L 132 193 L 133 193 L 134 194 L 152 194 L 153 193 L 153 190 L 155 188 L 158 188 L 158 185 L 160 183 L 163 183 L 163 182 L 164 181 L 163 180 L 165 178 L 168 178 L 168 175 L 170 173 L 173 173 L 173 172 L 174 171 L 174 169 L 172 167 L 174 165 L 175 166 L 175 167 L 179 167 L 179 164 L 181 162 L 203 162 L 205 164 L 205 165 L 203 167 L 202 167 L 201 168 L 200 168 L 200 171 L 198 173 L 195 173 L 195 178 L 198 178 L 200 180 L 200 181 L 198 183 L 195 183 L 195 186 L 193 188 L 164 188 L 164 190 L 163 191 L 163 195 L 164 196 L 164 199 L 167 199 L 168 200 L 168 202 L 169 203 L 169 204 L 172 204 L 174 206 L 174 209 L 183 209 L 184 210 L 184 218 L 185 219 L 185 220 L 188 220 L 189 221 L 189 223 L 190 224 L 190 225 L 193 225 L 195 227 L 195 230 L 205 230 L 205 196 L 207 194 L 215 194 L 215 190 L 217 188 L 224 188 L 226 190 L 226 193 L 227 193 L 228 194 L 236 194 L 236 175 L 238 173 L 241 173 L 242 172 L 242 169 L 244 167 L 247 167 L 247 164 L 249 162 L 252 162 L 252 132 L 251 131 L 249 131 L 247 129 L 247 126 L 244 126 L 242 124 L 242 121 L 238 121 L 236 119 L 236 116 L 233 116 L 231 114 L 231 111 L 230 110 L 228 110 L 226 108 L 226 105 L 218 105 L 217 104 L 216 104 L 215 103 L 215 100 L 207 100 L 205 98 L 205 95 L 181 95 L 179 93 L 179 53" />
<path d="M 0 0 L 1 0" />
</g>
</svg>